<svg xmlns="http://www.w3.org/2000/svg" width="1200" height="360" viewBox="0 0 1200 360" fill="none">
  <defs>
    <linearGradient id="bg" x1="68" y1="20" x2="1120" y2="365" gradientUnits="userSpaceOnUse">
      <stop stop-color="#182536"/>
      <stop offset=".58" stop-color="#19283a"/>
      <stop offset="1" stop-color="#12251f"/>
    </linearGradient>
    <linearGradient id="blue" x1="111" y1="56" x2="370" y2="324" gradientUnits="userSpaceOnUse">
      <stop stop-color="#c3d6ff"/>
      <stop offset="1" stop-color="#7aa8ff"/>
    </linearGradient>
    <linearGradient id="green" x1="803" y1="103" x2="1033" y2="260" gradientUnits="userSpaceOnUse">
      <stop stop-color="#2d564c"/>
      <stop offset="1" stop-color="#203c35"/>
    </linearGradient>
    <radialGradient id="glow" cx="0" cy="0" r="1" gradientTransform="matrix(390 0 0 220 963 166)" gradientUnits="userSpaceOnUse">
      <stop stop-color="#83dfc2" stop-opacity=".14"/>
      <stop offset="1" stop-color="#83dfc2" stop-opacity="0"/>
    </radialGradient>
    <filter id="shadow" x="718" y="70" width="383" height="242" color-interpolation-filters="sRGB" filterUnits="userSpaceOnUse">
      <feGaussianBlur stdDeviation="15"/>
    </filter>
  </defs>
  <rect width="1200" height="360" rx="30" fill="url(#bg)"/>
  <rect width="1200" height="360" rx="30" fill="url(#glow)"/>
  <circle cx="1104" cy="22" r="144" stroke="#d5e3ff" stroke-opacity=".07"/>
  <circle cx="1104" cy="22" r="112" stroke="#d5e3ff" stroke-opacity=".07"/>
  <circle cx="58" cy="344" r="184" stroke="#d5e3ff" stroke-opacity=".06"/>
  <text x="100" y="89" fill="#9bbcff" font-family="Segoe UI,Arial,sans-serif" font-size="16" font-weight="700" letter-spacing="3">SMART KEYBOARD LAYOUT FIXER</text>
  <text x="98" y="177" fill="#f1f5fb" font-family="Segoe UI,Arial,sans-serif" font-size="64" font-weight="750">بدّلها</text>
  <text x="102" y="221" fill="#adc7ff" font-family="Segoe UI,Arial,sans-serif" font-size="24" font-weight="600">اكتب براحتك. وبدّلها تلحقك.</text>
  <text x="103" y="264" fill="#a7b4c3" font-family="Segoe UI,Arial,sans-serif" font-size="15">Arabic ↔ English · Offline · Windows</text>
  <rect x="736" y="99" width="141" height="91" rx="22" fill="#0a111a" fill-opacity=".35" filter="url(#shadow)"/>
  <rect x="754" y="106" width="133" height="82" rx="19" fill="#24354a" stroke="#829fcd" stroke-opacity=".48"/>
  <text x="820.5" y="157" fill="#c1d4ff" font-family="Segoe UI,Arial,sans-serif" font-size="21" font-weight="700" text-anchor="middle">عربي</text>
  <rect x="934" y="175" width="133" height="82" rx="19" fill="url(#green)" stroke="#83d9bd" stroke-opacity=".44"/>
  <text x="1000.5" y="228" fill="#9ce5cf" font-family="Arial,sans-serif" font-size="27" font-weight="700" text-anchor="middle">EN</text>
  <path d="M890 151c20-11 45-10 62 2m-8-13 9 14-17 4" stroke="#a9c4fa" stroke-width="3" stroke-linecap="round" stroke-linejoin="round"/>
  <path d="M930 210c-18 11-41 10-57-2m8 13-9-14 17-4" stroke="#82dcc0" stroke-width="3" stroke-linecap="round" stroke-linejoin="round"/>
  <rect x="790" y="282" width="225" height="5" rx="2.5" fill="#9bbcff" fill-opacity=".23"/>
  <rect x="790" y="282" width="134" height="5" rx="2.5" fill="#86aef8"/>
  <circle cx="929" cy="284.5" r="8" fill="#bdd1ff" stroke="#243850" stroke-width="4"/>
</svg>
